<svg width="130" height="130" viewBox="0 0 130 130" fill="none" xmlns="http://www.w3.org/2000/svg">
<circle cx="65" cy="65" r="65" fill="#FF5C00"/>
<path d="M62.6345 51.4123C63.1653 49.5292 65.8347 49.5292 66.3655 51.4123L68.5388 59.1216C68.7218 59.7708 69.2292 60.2782 69.8784 60.4612L77.5877 62.6345C79.4708 63.1653 79.4708 65.8347 77.5877 66.3655L69.8784 68.5388C69.2292 68.7218 68.7218 69.2292 68.5388 69.8784L66.3655 77.5877C65.8347 79.4708 63.1653 79.4708 62.6345 77.5877L60.4612 69.8784C60.2782 69.2292 59.7708 68.7218 59.1216 68.5388L51.4123 66.3655C49.5292 65.8347 49.5292 63.1653 51.4123 62.6345L59.1216 60.4612C59.7708 60.2782 60.2782 59.7708 60.4612 59.1216L62.6345 51.4123Z" fill="#141414"/>
<path d="M54.9572 111.101C52.5342 110.585 50.591 111.5 50.1522 113.547L50.1167 113.712L51.6343 114.035L51.6698 113.87C51.9505 112.561 52.9266 112.051 54.661 112.42C56.6632 112.847 57.4307 113.994 56.9756 116.117C56.5204 118.241 55.3468 118.988 53.3445 118.561C51.6102 118.191 50.9311 117.316 51.2091 116.019L51.2473 115.841L49.7297 115.517L49.6915 115.695C49.2554 117.73 50.6663 119.36 53.0766 119.873C55.7292 120.438 57.8597 119.084 58.4294 116.427C58.9991 113.77 57.6098 111.666 54.9572 111.101Z" fill="#141414"/>
<path d="M44.8006 107.652C42.3046 106.467 39.9172 107.292 38.745 109.745C37.5729 112.198 38.4349 114.566 40.9309 115.751C43.4033 116.925 45.8025 116.106 46.9746 113.653C48.1468 111.2 47.273 108.827 44.8006 107.652ZM44.2173 108.873C46.0893 109.762 46.5691 111.055 45.6325 113.016C44.6959 114.976 43.3805 115.431 41.5085 114.542C39.6366 113.653 39.1506 112.342 40.0872 110.382C41.0238 108.422 42.3453 107.984 44.2173 108.873Z" fill="#141414"/>
<path d="M37.4216 103.559L34.2048 107.537L33.2959 108.743L33.2147 108.678L33.3278 106.798L33.4622 100.377L32.2846 99.4302L26.8005 106.211L27.8969 107.092L31.1383 103.085L32.0779 101.819L32.1591 101.884L32.0192 103.859L31.8563 110.275L33.034 111.221L38.518 104.44L37.4216 103.559Z" fill="#141414"/>
<path d="M27.6413 94.0651L21.787 98.6945L19.6556 96.0157L18.6645 96.7994L23.8025 103.257L24.7936 102.473L22.6541 99.7843L28.5084 95.155L27.6413 94.0651Z" fill="#141414"/>
<path d="M23.8112 88.5366L21.3308 88.6088L19.3402 84.4565L20.9545 82.5779L20.2685 81.1468L14.0665 88.41L14.9212 90.1929L24.486 89.9441L23.8112 88.5366ZM17.0357 88.7244L15.6986 88.7995L15.6536 88.7057L16.5521 87.7156L18.4407 85.5046L19.9477 88.6482L17.0357 88.7244Z" fill="#141414"/>
<path d="M18.9437 75.1093C18.4152 72.696 16.7768 71.3094 14.7255 71.7558L14.5599 71.7918L14.8909 73.3033L15.0565 73.2672C16.3688 72.9817 17.2376 73.6575 17.6158 75.3849C18.0525 77.379 17.321 78.5495 15.1933 79.0125C13.0656 79.4756 11.8986 78.7182 11.462 76.7241C11.0837 74.9967 11.6037 74.0186 12.9033 73.7358L13.0816 73.697L12.7507 72.1855L12.5723 72.2243C10.5338 72.6679 9.6268 74.6218 10.1524 77.0224C10.7309 79.6642 12.8475 81.04 15.5103 80.4605C18.1732 79.881 19.5221 77.7512 18.9437 75.1093Z" fill="#141414"/>
<path d="M17.7699 64.3973L10.2976 64.347L10.3208 60.9279L9.05587 60.9194L9 69.1615L10.2649 69.17L10.2882 65.738L17.7605 65.7883L17.7699 64.3973Z" fill="#141414"/>
<path d="M19.6117 51.7748L18.3761 51.5044L17.1792 56.9391L14.7336 56.4039L15.8886 51.1596L14.6658 50.892L13.5108 56.1363L11.1162 55.6122L12.313 50.1774L11.0775 49.907L9.5786 56.7131L18.1127 58.581L19.6117 51.7748Z" fill="#141414"/>
<path d="M23.5818 42.3055L22.4297 41.785L19.9752 47.1846L19.8801 47.1417L16.7164 39.361L15.5642 38.8405L12.4261 45.744L13.5783 46.2645L15.8606 41.2438L15.9556 41.2867L19.1624 48.9727L20.3146 49.4932L23.5818 42.3055Z" fill="#141414"/>
<path d="M28.1752 37.3424L27.3362 36.769L24.6816 40.6292L25.5206 41.2026L28.1752 37.3424Z" fill="#141414"/>
<path d="M29.5284 33.9484L25.8222 30.0885L24.9098 29.2135L24.9851 29.1416L26.2461 29.684L31.3344 31.5051L32.5591 30.3364L30.9564 25.1891L30.4679 23.9096L30.5433 23.8377L31.3803 24.7846L35.0865 28.6445L36.104 27.6736L30.0622 21.3813L28.6773 22.7028L30.3768 28.0637L31.0745 29.8995L30.9991 29.9714L29.171 29.2144L23.854 27.3055L22.4692 28.627L28.511 34.9193L29.5284 33.9484Z" fill="#141414"/>
<path d="M42.1034 24.2541C44.5231 22.9209 45.2402 20.5056 43.9217 18.1276C42.6033 15.7495 40.1702 15.07 37.7506 16.4032C35.3537 17.7239 34.6252 20.1455 35.9437 22.5235C37.2621 24.9015 39.7066 25.5748 42.1034 24.2541ZM41.4473 23.0708C39.6326 24.0707 38.2983 23.7067 37.2448 21.8066C36.1913 19.9064 36.5856 18.5751 38.4003 17.5752C40.2151 16.5752 41.5671 16.9443 42.6206 18.8445C43.6741 20.7446 43.2621 22.0709 41.4473 23.0708Z" fill="#141414"/>
<path d="M49.8189 20.7045L46.9161 12.4889L45.5877 12.9554L48.4905 21.1709L49.8189 20.7045Z" fill="#141414"/>
<path d="M61.3514 15.0966L61.1774 13.089L59.4104 13.2412L59.5845 15.2488L61.3514 15.0966Z" fill="#141414"/>
<path d="M72.3238 18.9335C74.7722 19.3123 76.6603 18.2887 76.9823 16.2204L77.0083 16.0534L75.4748 15.8162L75.4488 15.9832C75.2428 17.3064 74.2972 17.8706 72.5446 17.5995C70.5214 17.2865 69.69 16.1843 70.0239 14.0389C70.3578 11.8935 71.4872 11.0815 73.5104 11.3945C75.263 11.6656 75.9907 12.5017 75.7867 13.8121L75.7587 13.9919L77.2922 14.2292L77.3202 14.0493C77.6402 11.9938 76.1391 10.446 73.7035 10.0693C71.0231 9.65463 68.9728 11.1267 68.5548 13.8117C68.1369 16.4966 69.6433 18.5189 72.3238 18.9335Z" fill="#141414"/>
<path d="M82.6598 21.8035C85.2191 22.8461 87.5559 21.8881 88.5869 19.3729C89.6179 16.8576 88.6229 14.5423 86.0636 13.4997C83.5285 12.467 81.1796 13.4201 80.1486 15.9353C79.1176 18.4506 80.1247 20.7708 82.6598 21.8035ZM83.1729 20.552C81.2534 19.77 80.701 18.5057 81.5248 16.496C82.3487 14.4862 83.6361 13.9574 85.5555 14.7393C87.475 15.5212 88.0345 16.8025 87.2107 18.8122C86.3869 20.822 85.0923 21.3339 83.1729 20.552Z" fill="#141414"/>
<path d="M90.2594 25.4741L93.2452 21.3215L94.0841 20.0655L94.1689 20.1261L94.1627 22.0092L94.393 28.4279L95.6225 29.3065L100.713 22.2271L99.5682 21.4091L96.5596 25.5934L95.6932 26.9098L95.6084 26.8492L95.636 24.8694L95.4345 18.4552L94.205 17.5766L89.1147 24.6561L90.2594 25.4741Z" fill="#141414"/>
<path d="M100.563 34.401L106.145 29.4489L108.425 32.0031L109.37 31.1648L103.874 25.0075L102.929 25.8458L105.217 28.4097L99.6353 33.3619L100.563 34.401Z" fill="#141414"/>
<path d="M104.701 39.7047L107.173 39.4927L109.396 43.526L107.891 45.4927L108.657 46.8828L114.437 39.2814L113.482 37.5495L103.947 38.3375L104.701 39.7047ZM111.455 39.135L112.785 38.9846L112.836 39.0757L111.995 40.1148L110.235 42.4288L108.552 39.3753L111.455 39.135Z" fill="#141414"/>
<path d="M110.323 52.8359C110.987 55.2155 112.702 56.5075 114.724 55.9461L114.888 55.9008L114.471 54.4104L114.308 54.4557C113.014 54.8149 112.108 54.1891 111.633 52.4858C111.083 50.5195 111.747 49.3096 113.845 48.7273C115.943 48.145 117.151 48.8353 117.701 50.8016C118.176 52.5049 117.713 53.5108 116.431 53.8664L116.255 53.9152L116.672 55.4056L116.847 55.3568C118.858 54.7989 119.652 52.797 118.991 50.43C118.264 47.8249 116.072 46.5708 113.447 47.2996C110.821 48.0283 109.595 50.2309 110.323 52.8359Z" fill="#141414"/>
<path d="M112.103 63.4645L119.566 63.0932L119.737 66.5081L121 66.4452L120.588 58.2132L119.325 58.276L119.496 61.7039L112.033 62.0752L112.103 63.4645Z" fill="#141414"/>
<path d="M110.98 76.1707L112.229 76.371L113.116 70.8774L115.588 71.2738L114.732 76.5749L115.968 76.7731L116.824 71.4721L119.244 71.8602L118.358 77.3538L119.607 77.5541L120.717 70.6743L112.09 69.2909L110.98 76.1707Z" fill="#141414"/>
<path d="M107.554 85.8488L108.734 86.3035L110.878 80.774L110.975 80.8115L114.575 88.4013L115.755 88.8559L118.496 81.7864L117.317 81.3318L115.323 86.4732L115.226 86.4357L111.588 78.943L110.408 78.4883L107.554 85.8488Z" fill="#141414"/>
<path d="M103.25 91.063L104.12 91.5882L106.551 87.5844L105.681 87.0593L103.25 91.063Z" fill="#141414"/>
<path d="M102.091 94.528L106.011 98.1726L106.971 98.9947L106.9 99.0707L105.61 98.6004L100.427 97.0692L99.2704 98.3051L101.163 103.354L101.723 104.604L101.652 104.68L100.762 103.782L96.843 100.137L95.8823 101.164L102.272 107.105L103.579 105.707L101.578 100.451L100.777 98.6575L100.849 98.5815L102.717 99.2342L108.134 100.84L109.441 99.4426L103.052 93.5012L102.091 94.528Z" fill="#141414"/>
<path d="M90.0867 104.916C87.7466 106.384 87.1677 108.836 88.619 111.135C90.0704 113.435 92.538 113.976 94.8782 112.509C97.1962 111.055 97.7861 108.596 96.3348 106.296C94.8834 103.997 92.4047 103.462 90.0867 104.916ZM90.8089 106.06C92.5639 104.96 93.9167 105.248 95.0764 107.086C96.2361 108.923 95.918 110.275 94.1629 111.375C92.4078 112.476 91.0371 112.184 89.8774 110.346C88.7177 108.509 89.0538 107.161 90.8089 106.06Z" fill="#141414"/>
<path d="M82.5849 108.895L85.9495 116.934L87.2493 116.393L83.8847 108.355L82.5849 108.895Z" fill="#141414"/>
<path d="M71.3892 115.145L71.6769 117.139L73.4324 116.888L73.1447 114.893L71.3892 115.145Z" fill="#141414"/>
</svg>
