<svg width="130" height="130" viewBox="0 0 130 130" fill="none" xmlns="http://www.w3.org/2000/svg">
<circle cx="65" cy="65" r="65" fill="#FF5C00"/>
<path d="M62.6345 51.4123C63.1653 49.5292 65.8347 49.5292 66.3655 51.4123L68.5388 59.1216C68.7218 59.7708 69.2292 60.2782 69.8784 60.4612L77.5877 62.6345C79.4708 63.1653 79.4708 65.8347 77.5877 66.3655L69.8784 68.5388C69.2292 68.7218 68.7218 69.2292 68.5388 69.8784L66.3655 77.5877C65.8347 79.4708 63.1653 79.4708 62.6345 77.5877L60.4612 69.8784C60.2782 69.2292 59.7708 68.7218 59.1216 68.5388L51.4123 66.3655C49.5292 65.8347 49.5292 63.1653 51.4123 62.6345L59.1216 60.4612C59.7708 60.2782 60.2782 59.7708 60.4612 59.1216L62.6345 51.4123Z" fill="#141414"/>
<path d="M58.5261 109.599C56.5623 109.296 55.1564 109.956 54.5103 111.365L54.4054 111.349L54.7403 109.168L53.2712 108.941L52.4813 114.085L57.8031 114.908L57.9925 113.674L54.2747 113.1L54.2955 112.964C54.5565 111.265 55.6026 110.749 58.0011 111.119C60.3547 111.483 61.3231 112.773 60.9374 115.285C60.5516 117.797 59.2241 118.746 56.8106 118.373C54.7268 118.051 53.8425 117.114 54.0643 115.67L54.0827 115.549L52.2988 115.273L52.2803 115.394C51.9223 117.725 53.6794 119.475 56.5277 119.916C59.7358 120.412 62.1636 118.693 62.6463 115.549C63.1291 112.405 61.4794 110.056 58.5261 109.599Z" fill="#141414"/>
<path d="M43.1157 104.674L42.516 106.022L48.4442 108.677L47.2573 111.346L41.5369 108.784L40.9434 110.118L46.6638 112.68L45.5016 115.293L39.5734 112.638L38.9738 113.986L46.3979 117.311L50.5398 107.999L43.1157 104.674Z" fill="#141414"/>
<path d="M36.5875 99.9755L31.1535 106.782L28.0402 104.279L27.1204 105.431L34.6254 111.464L35.5453 110.312L32.4202 107.8L37.8541 100.994L36.5875 99.9755Z" fill="#141414"/>
<path d="M27.9924 90.4903L19.6607 96.329L20.5987 97.6766L28.9303 91.8379L27.9924 90.4903Z" fill="#141414"/>
<path d="M25.3549 86.2693L19.898 88.6763L18.3117 89.4425L18.2628 89.331L19.3886 87.438L22.9744 80.8355L22.2664 79.2193L12.9631 83.3229L13.6223 84.8276L19.121 82.4022L20.7706 81.5915L20.8194 81.7029L19.6148 83.6807L16.0029 90.2614L16.7109 91.8776L26.0142 87.774L25.3549 86.2693Z" fill="#141414"/>
<path d="M20.3342 66.7494L11.6522 67.1482L11.4697 63.1497L10 63.2172L10.4397 72.8563L11.9095 72.7888L11.7264 68.775L20.4085 68.3762L20.3342 66.7494Z" fill="#141414"/>
<path d="M21.642 55.1376C22.3827 51.9979 20.8576 49.4773 17.7727 48.7445C14.6879 48.0118 12.1984 49.5787 11.4576 52.7185C10.7239 55.8286 12.2455 58.3641 15.3303 59.0968C18.4152 59.8296 20.9082 58.2478 21.642 55.1376ZM20.1069 54.773C19.5514 57.1278 18.1936 57.994 15.7287 57.4085C13.2638 56.823 12.4223 55.4344 12.9779 53.0796C13.5335 50.7248 14.9095 49.8474 17.3744 50.4329C19.8393 51.0184 20.6625 52.4182 20.1069 54.773Z" fill="#141414"/>
<path d="M26.2948 43.2225C27.8048 40.565 27.2645 38.2587 24.8663 36.8868L19.701 33.9319L18.8897 35.3598L23.9627 38.262C25.7416 39.2796 26.0288 40.495 24.9244 42.4386C23.8201 44.3822 22.6315 44.7533 20.8526 43.7357L15.7795 40.8336L14.9757 42.2483L20.141 45.2032C22.5392 46.5751 24.7923 45.8669 26.2948 43.2225Z" fill="#141414"/>
<path d="M34.011 33.22C36.0711 31.1978 36.4307 28.7156 34.7229 26.9641L34.5851 26.8226L33.2948 28.0892L33.4327 28.2306C34.5252 29.3512 34.3933 30.6304 32.9187 32.0779C31.2165 33.7489 29.6076 33.7527 27.8362 31.9359C26.0648 30.1191 26.0933 28.4943 27.7955 26.8233C29.2701 25.3758 30.5582 25.2824 31.6401 26.392L31.7886 26.5443L33.0788 25.2778L32.9303 25.1255C31.2332 23.3848 28.7413 23.7018 26.6922 25.7134C24.437 27.9272 24.3833 30.8755 26.6002 33.1492C28.8171 35.423 31.7559 35.4338 34.011 33.22Z" fill="#141414"/>
<path d="M41.0148 27.3444L38.9277 23.4765L44.183 20.6215L46.2701 24.4894L47.6973 23.714L42.8587 14.7469L41.4315 15.5223L43.4825 19.3233L38.2272 22.1783L36.1762 18.3774L34.7357 19.16L39.5742 28.127L41.0148 27.3444Z" fill="#141414"/>
<path d="M60.8274 16.8117L60.5804 14.4657L58.529 14.6832L58.776 17.0292L60.8274 16.8117Z" fill="#141414"/>
<path d="M73.3063 21.3615C75.2568 21.7414 76.6872 21.1363 77.3874 19.7534L77.4916 19.7737L77.0725 21.9401L78.5317 22.2243L79.5202 17.1146L74.2343 16.085L73.9973 17.3102L77.69 18.0294L77.664 18.1639C77.3374 19.8522 76.2721 20.3268 73.8898 19.8628C71.552 19.4075 70.6343 18.0815 71.117 15.5864C71.5997 13.0913 72.963 12.1941 75.3602 12.661C77.4299 13.0641 78.2773 14.0353 77.9998 15.4696L77.9767 15.5892L79.7486 15.9343L79.7717 15.8148C80.2197 13.499 78.5317 11.6818 75.7026 11.1308C72.5162 10.5102 70.0236 12.1332 69.4195 15.2558C68.8154 18.3783 70.3729 20.7902 73.3063 21.3615Z" fill="#141414"/>
<path d="M88.5144 26.8834L89.1658 25.5597L83.3449 22.6757L84.6342 20.0556L90.2512 22.8384L90.8958 21.5284L85.2789 18.7455L86.5414 16.1799L92.3623 19.0639L93.0137 17.7401L85.724 14.1285L81.2247 23.2717L88.5144 26.8834Z" fill="#141414"/>
<path d="M94.8558 31.8331L100.549 25.244L103.563 27.8661L104.527 26.7506L97.2612 20.4297L96.2974 21.5451L99.3229 24.1772L93.6295 30.7663L94.8558 31.8331Z" fill="#141414"/>
<path d="M103.077 41.6462L111.629 36.1367L110.743 34.7535L102.192 40.263L103.077 41.6462Z" fill="#141414"/>
<path d="M105.549 45.9668L111.095 43.7743L112.71 43.0705L112.755 43.1838L111.556 45.0316L107.718 51.4893L108.363 53.1319L117.818 49.394L117.217 47.8647L111.629 50.074L109.949 50.8198L109.905 50.7065L111.185 48.7772L115.049 42.3423L114.404 40.6997L104.949 44.4375L105.549 45.9668Z" fill="#141414"/>
<path d="M109.81 65.6676L118.501 65.6076L118.529 69.6102L120 69.6001L119.934 59.9511L118.463 59.9613L118.49 63.9791L109.799 64.0392L109.81 65.6676Z" fill="#141414"/>
<path d="M108.054 77.2197C107.192 80.3282 108.619 82.9064 111.673 83.7588C114.727 84.6113 117.275 83.1425 118.137 80.034C118.991 76.9548 117.568 74.362 114.514 73.5095C111.46 72.6571 108.908 74.1405 108.054 77.2197ZM109.574 77.6439C110.22 75.3125 111.61 74.5 114.051 75.1811C116.491 75.8622 117.278 77.2825 116.632 79.6139C115.986 81.9453 114.577 82.7684 112.136 82.0873C109.696 81.4061 108.927 79.9753 109.574 77.6439Z" fill="#141414"/>
<path d="M102.943 88.9444C101.332 91.5411 101.782 93.8667 104.125 95.3311L109.172 98.4851L110.038 97.0899L105.082 93.9922C103.344 92.906 103.104 91.6803 104.282 89.7812C105.461 87.8821 106.663 87.5576 108.401 88.6438L113.358 91.7415L114.216 90.3592L109.169 87.2051C106.826 85.7408 104.547 86.3607 102.943 88.9444Z" fill="#141414"/>
<path d="M94.8457 98.6386C92.709 100.579 92.2535 103.045 93.8922 104.862L94.0245 105.009L95.3628 103.793L95.2304 103.647C94.1821 102.485 94.3635 101.211 95.893 99.8224C97.6586 98.2191 99.2665 98.278 100.966 100.162C102.666 102.047 102.575 103.669 100.809 105.273C99.2794 106.662 97.9886 106.705 96.9505 105.554L96.808 105.396L95.4697 106.611L95.6122 106.769C97.2407 108.575 99.7429 108.355 101.868 106.425C104.208 104.301 104.375 101.357 102.248 98.9982C100.121 96.6398 97.1849 96.5144 94.8457 98.6386Z" fill="#141414"/>
<path d="M87.6198 104.237L89.5555 108.183L84.1937 110.831L82.2579 106.885L80.8018 107.604L85.2895 116.753L86.7457 116.034L84.8434 112.156L90.2052 109.508L92.1075 113.386L93.5773 112.66L89.0895 103.511L87.6198 104.237Z" fill="#141414"/>
<path d="M67.4144 113.989L67.5704 116.343L69.6286 116.206L69.4726 113.852L67.4144 113.989Z" fill="#141414"/>
</svg>
