<svg width="1825" height="248" viewBox="0 0 1825 248" fill="none" xmlns="http://www.w3.org/2000/svg">
<path d="M151.388 244.314C205.263 244.314 230.405 218.454 230.405 177.509C230.405 145.184 208.854 122.915 164.318 119.683V116.45C204.544 113.577 220.348 92.0269 220.348 62.216C220.348 24.5034 193.769 3.67166 144.563 3.67166H0.177979V244.314H151.388ZM54.0531 52.1593H137.739C157.853 52.1593 166.473 59.3427 166.473 75.8644C166.473 92.3861 158.212 99.2103 138.458 99.2103H54.0531V52.1593ZM54.0531 143.747H144.923C166.832 143.747 175.811 150.571 175.811 169.607C175.811 189.002 166.832 195.826 144.923 195.826H54.0531V143.747Z" fill="#141414"/>
<path d="M359.834 247.906C441.365 247.906 490.571 199.059 490.571 123.993C490.571 48.9268 441.365 0.0799866 359.834 0.0799866C280.099 0.0799866 230.534 48.9268 230.534 123.993C230.534 199.059 280.099 247.906 359.834 247.906ZM359.834 196.186C307.036 196.186 287.641 177.509 287.641 123.993C287.641 70.4769 307.036 51.8001 359.834 51.8001C412.632 51.8001 433.104 70.4769 433.104 123.993C433.104 177.509 412.632 196.186 359.834 196.186Z" fill="#141414"/>
<path d="M553.574 244.314V128.303L551.419 84.1252H555.011L585.54 129.38L674.255 244.314H731.721V3.67166H677.846V119.683L680.36 168.171H676.41L643.366 117.528L557.166 3.67166H499.699V244.314H553.574Z" fill="#141414"/>
<path d="M843.992 247.906C922.291 247.906 951.743 210.911 951.743 149.135V3.67166H894.635V149.135C894.635 182.896 886.374 195.467 843.992 195.467C801.251 195.467 794.068 182.178 794.068 146.62V136.205H736.96V146.62C736.96 210.193 766.053 247.906 843.992 247.906Z" fill="#141414"/>
<path d="M1088.38 247.906C1169.91 247.906 1219.12 199.059 1219.12 123.993C1219.12 48.9268 1169.91 0.0799866 1088.38 0.0799866C1008.65 0.0799866 959.083 48.9268 959.083 123.993C959.083 199.059 1008.65 247.906 1088.38 247.906ZM1088.38 196.186C1035.59 196.186 1016.19 177.509 1016.19 123.993C1016.19 70.4769 1035.59 51.8001 1088.38 51.8001C1141.18 51.8001 1161.65 70.4769 1161.65 123.993C1161.65 177.509 1141.18 196.186 1088.38 196.186Z" fill="#141414"/>
<path d="M1344.62 247.906C1423.28 247.906 1462.78 208.397 1462.78 143.747V3.67166H1408.91V139.796C1408.91 180.741 1393.82 195.467 1344.62 195.467C1295.77 195.467 1280.33 180.741 1280.33 139.796V3.67166H1226.45V143.747C1226.45 208.397 1266.32 247.906 1344.62 247.906Z" fill="#141414"/>
<path d="M1529.42 244.314V157.036H1564.97C1592.99 157.036 1601.97 163.142 1611.67 181.819L1644.71 244.314H1707.2L1672.36 179.664C1663.39 162.783 1655.12 151.29 1633.57 145.543V142.67C1678.83 138.36 1701.46 115.014 1701.46 75.8644C1701.46 29.8909 1667.7 3.67166 1608.43 3.67166H1475.54V244.314H1529.42ZM1529.42 52.1593H1608.07C1633.57 52.1593 1645.07 60.4202 1645.07 84.1252C1645.07 109.267 1633.57 116.45 1608.07 116.45H1529.42V52.1593Z" fill="#141414"/>
<path d="M1816.64 165.297C1816.64 136.205 1824.18 56.4693 1824.18 28.8134V3.67166H1754.86V28.8134C1754.86 56.4693 1762.4 135.845 1762.4 165.297H1816.64ZM1820.23 244.314V185.77H1758.81V244.314H1820.23Z" fill="#141414"/>
</svg>
