<svg width="148" height="58" viewBox="0 0 148 58" fill="none" xmlns="http://www.w3.org/2000/svg">
<mask id="path-1-outside-1_113_25" maskUnits="userSpaceOnUse" x="0" y="15.9518" width="131" height="42" fill="black">
<rect fill="white" y="15.9518" width="131" height="42"/>
<path d="M15.4699 35.5599V32.8658H3.99951V16.9518H1V35.5599H15.4699Z"/>
<path d="M19.3531 35.5599L21.4917 30.7273H31.3234L33.4619 35.5599H36.8503L28.5461 16.9518H24.3245L16.0203 35.5599H19.3531ZM25.2133 22.3676L26.2964 19.7291H26.5186L27.6018 22.3676L30.1291 28.0333H22.6859L25.2133 22.3676Z"/>
<path d="M46.8486 35.8376C52.4311 35.8376 55.5972 32.8936 55.5972 27.8389V16.9518H52.5977V27.6445C52.5977 31.3939 50.9313 32.9492 46.8486 32.9492C42.766 32.9492 41.0996 31.3939 41.0996 27.6445V16.9518H38.1278V27.8389C38.1278 32.8936 41.294 35.8376 46.8486 35.8376Z"/>
<path d="M61.2547 35.5599V28.3388H64.6708C67.0038 28.3388 67.8647 28.9498 68.6979 30.4218L71.6697 35.5599H75.1135L72.0029 30.1718C71.3364 29.0054 70.6698 28.1722 69.2256 27.7833V27.5889C72.725 27.3945 74.7525 25.5059 74.7525 22.4231C74.7525 18.9515 72.1418 16.9518 67.9203 16.9518H58.2552V35.5599H61.2547ZM61.2547 19.6458H67.8925C70.3921 19.6458 71.6419 20.5623 71.6419 22.8397C71.6419 25.1727 70.3921 26.0336 67.8925 26.0336H61.2547V19.6458Z"/>
<path d="M91.8018 35.5599V32.8658H79.9148V27.5334H91.3852V24.8672H79.9148V19.6458H91.8018V16.9518H76.9153V35.5599H91.8018Z"/>
<path d="M97.1375 35.5599V24.645L97.0264 21.4233H97.2486L99.5816 24.7005L107.969 35.5599H111.191V16.9518H108.191V27.95L108.33 31.3105H108.108L105.692 27.8389L97.3597 16.9518H94.138V35.5599H97.1375Z"/>
<path d="M123.213 35.5599V19.6458H130.517V16.9518H112.909V19.6458H120.241V35.5599H123.213Z"/>
<path d="M9.63748 56.8237C15.4143 56.8237 19.0526 53.2688 19.0526 47.5197C19.0526 41.7706 15.4143 38.2157 9.63748 38.2157H1.16664V56.8237H9.63748ZM9.63748 40.9097C13.9423 40.9097 15.8865 42.7427 15.8865 47.5197C15.8865 52.2967 13.9423 54.1297 9.63748 54.1297H4.13838V40.9097H9.63748Z"/>
<path d="M23.2316 56.8237L25.3702 51.9912H35.2019L37.3404 56.8237H40.7288L32.4246 38.2157H28.203L19.8988 56.8237H23.2316ZM29.0918 43.6315L30.1749 40.993H30.3971L31.4803 43.6315L34.0076 49.2972H26.5644L29.0918 43.6315Z"/>
<path d="M50.7271 57.1015C56.3095 57.1015 59.4757 54.1575 59.4757 49.1028V38.2157H56.4762V48.9084C56.4762 52.6578 54.8098 54.2131 50.7271 54.2131C46.6445 54.2131 44.9781 52.6578 44.9781 48.9084V38.2157H42.0063V49.1028C42.0063 54.1575 45.1725 57.1015 50.7271 57.1015Z"/>
<path d="M65.1332 56.8237V51.2135H71.2433C75.3815 51.2135 78.2144 48.825 78.2144 44.7146C78.2144 40.5764 75.3815 38.2157 71.2433 38.2157H62.1337V56.8237H65.1332ZM70.9656 40.9097C73.7707 40.9097 75.2149 41.9651 75.2149 44.7146C75.2149 47.4642 73.7707 48.5195 70.9656 48.5195H65.1332V40.9097H70.9656Z"/>
<path d="M83.0068 56.8237V48.7973H93.9494V56.8237H96.9212V38.2157H93.9494V46.1033H83.0068V38.2157H80.0073V56.8237H83.0068Z"/>
<path d="M102.725 56.8237V38.2157H99.7252V56.8237H102.725Z"/>
<path d="M108.502 56.8237V45.9089L108.391 42.6872H108.613L110.946 45.9644L119.333 56.8237H122.555V38.2157H119.556V49.2139L119.694 52.5744H119.472L117.056 49.1028L108.724 38.2157H105.502V56.8237H108.502Z"/>
</mask>
<path d="M15.4699 35.5599V32.8658H3.99951V16.9518H1V35.5599H15.4699Z" fill="white"/>
<path d="M19.3531 35.5599L21.4917 30.7273H31.3234L33.4619 35.5599H36.8503L28.5461 16.9518H24.3245L16.0203 35.5599H19.3531ZM25.2133 22.3676L26.2964 19.7291H26.5186L27.6018 22.3676L30.1291 28.0333H22.6859L25.2133 22.3676Z" fill="white"/>
<path d="M46.8486 35.8376C52.4311 35.8376 55.5972 32.8936 55.5972 27.8389V16.9518H52.5977V27.6445C52.5977 31.3939 50.9313 32.9492 46.8486 32.9492C42.766 32.9492 41.0996 31.3939 41.0996 27.6445V16.9518H38.1278V27.8389C38.1278 32.8936 41.294 35.8376 46.8486 35.8376Z" fill="white"/>
<path d="M61.2547 35.5599V28.3388H64.6708C67.0038 28.3388 67.8647 28.9498 68.6979 30.4218L71.6697 35.5599H75.1135L72.0029 30.1718C71.3364 29.0054 70.6698 28.1722 69.2256 27.7833V27.5889C72.725 27.3945 74.7525 25.5059 74.7525 22.4231C74.7525 18.9515 72.1418 16.9518 67.9203 16.9518H58.2552V35.5599H61.2547ZM61.2547 19.6458H67.8925C70.3921 19.6458 71.6419 20.5623 71.6419 22.8397C71.6419 25.1727 70.3921 26.0336 67.8925 26.0336H61.2547V19.6458Z" fill="white"/>
<path d="M91.8018 35.5599V32.8658H79.9148V27.5334H91.3852V24.8672H79.9148V19.6458H91.8018V16.9518H76.9153V35.5599H91.8018Z" fill="white"/>
<path d="M97.1375 35.5599V24.645L97.0264 21.4233H97.2486L99.5816 24.7005L107.969 35.5599H111.191V16.9518H108.191V27.95L108.33 31.3105H108.108L105.692 27.8389L97.3597 16.9518H94.138V35.5599H97.1375Z" fill="white"/>
<path d="M123.213 35.5599V19.6458H130.517V16.9518H112.909V19.6458H120.241V35.5599H123.213Z" fill="white"/>
<path d="M9.63748 56.8237C15.4143 56.8237 19.0526 53.2688 19.0526 47.5197C19.0526 41.7706 15.4143 38.2157 9.63748 38.2157H1.16664V56.8237H9.63748ZM9.63748 40.9097C13.9423 40.9097 15.8865 42.7427 15.8865 47.5197C15.8865 52.2967 13.9423 54.1297 9.63748 54.1297H4.13838V40.9097H9.63748Z" fill="white"/>
<path d="M23.2316 56.8237L25.3702 51.9912H35.2019L37.3404 56.8237H40.7288L32.4246 38.2157H28.203L19.8988 56.8237H23.2316ZM29.0918 43.6315L30.1749 40.993H30.3971L31.4803 43.6315L34.0076 49.2972H26.5644L29.0918 43.6315Z" fill="white"/>
<path d="M50.7271 57.1015C56.3095 57.1015 59.4757 54.1575 59.4757 49.1028V38.2157H56.4762V48.9084C56.4762 52.6578 54.8098 54.2131 50.7271 54.2131C46.6445 54.2131 44.9781 52.6578 44.9781 48.9084V38.2157H42.0063V49.1028C42.0063 54.1575 45.1725 57.1015 50.7271 57.1015Z" fill="white"/>
<path d="M65.1332 56.8237V51.2135H71.2433C75.3815 51.2135 78.2144 48.825 78.2144 44.7146C78.2144 40.5764 75.3815 38.2157 71.2433 38.2157H62.1337V56.8237H65.1332ZM70.9656 40.9097C73.7707 40.9097 75.2149 41.9651 75.2149 44.7146C75.2149 47.4642 73.7707 48.5195 70.9656 48.5195H65.1332V40.9097H70.9656Z" fill="white"/>
<path d="M83.0068 56.8237V48.7973H93.9494V56.8237H96.9212V38.2157H93.9494V46.1033H83.0068V38.2157H80.0073V56.8237H83.0068Z" fill="white"/>
<path d="M102.725 56.8237V38.2157H99.7252V56.8237H102.725Z" fill="white"/>
<path d="M108.502 56.8237V45.9089L108.391 42.6872H108.613L110.946 45.9644L119.333 56.8237H122.555V38.2157H119.556V49.2139L119.694 52.5744H119.472L117.056 49.1028L108.724 38.2157H105.502V56.8237H108.502Z" fill="white"/>
<path d="M15.4699 35.5599V32.8658H3.99951V16.9518H1V35.5599H15.4699Z" stroke="white" stroke-width="0.4" mask="url(#path-1-outside-1_113_25)"/>
<path d="M19.3531 35.5599L21.4917 30.7273H31.3234L33.4619 35.5599H36.8503L28.5461 16.9518H24.3245L16.0203 35.5599H19.3531ZM25.2133 22.3676L26.2964 19.7291H26.5186L27.6018 22.3676L30.1291 28.0333H22.6859L25.2133 22.3676Z" stroke="white" stroke-width="0.4" mask="url(#path-1-outside-1_113_25)"/>
<path d="M46.8486 35.8376C52.4311 35.8376 55.5972 32.8936 55.5972 27.8389V16.9518H52.5977V27.6445C52.5977 31.3939 50.9313 32.9492 46.8486 32.9492C42.766 32.9492 41.0996 31.3939 41.0996 27.6445V16.9518H38.1278V27.8389C38.1278 32.8936 41.294 35.8376 46.8486 35.8376Z" stroke="white" stroke-width="0.4" mask="url(#path-1-outside-1_113_25)"/>
<path d="M61.2547 35.5599V28.3388H64.6708C67.0038 28.3388 67.8647 28.9498 68.6979 30.4218L71.6697 35.5599H75.1135L72.0029 30.1718C71.3364 29.0054 70.6698 28.1722 69.2256 27.7833V27.5889C72.725 27.3945 74.7525 25.5059 74.7525 22.4231C74.7525 18.9515 72.1418 16.9518 67.9203 16.9518H58.2552V35.5599H61.2547ZM61.2547 19.6458H67.8925C70.3921 19.6458 71.6419 20.5623 71.6419 22.8397C71.6419 25.1727 70.3921 26.0336 67.8925 26.0336H61.2547V19.6458Z" stroke="white" stroke-width="0.4" mask="url(#path-1-outside-1_113_25)"/>
<path d="M91.8018 35.5599V32.8658H79.9148V27.5334H91.3852V24.8672H79.9148V19.6458H91.8018V16.9518H76.9153V35.5599H91.8018Z" stroke="white" stroke-width="0.4" mask="url(#path-1-outside-1_113_25)"/>
<path d="M97.1375 35.5599V24.645L97.0264 21.4233H97.2486L99.5816 24.7005L107.969 35.5599H111.191V16.9518H108.191V27.95L108.33 31.3105H108.108L105.692 27.8389L97.3597 16.9518H94.138V35.5599H97.1375Z" stroke="white" stroke-width="0.4" mask="url(#path-1-outside-1_113_25)"/>
<path d="M123.213 35.5599V19.6458H130.517V16.9518H112.909V19.6458H120.241V35.5599H123.213Z" stroke="white" stroke-width="0.4" mask="url(#path-1-outside-1_113_25)"/>
<path d="M9.63748 56.8237C15.4143 56.8237 19.0526 53.2688 19.0526 47.5197C19.0526 41.7706 15.4143 38.2157 9.63748 38.2157H1.16664V56.8237H9.63748ZM9.63748 40.9097C13.9423 40.9097 15.8865 42.7427 15.8865 47.5197C15.8865 52.2967 13.9423 54.1297 9.63748 54.1297H4.13838V40.9097H9.63748Z" stroke="white" stroke-width="0.4" mask="url(#path-1-outside-1_113_25)"/>
<path d="M23.2316 56.8237L25.3702 51.9912H35.2019L37.3404 56.8237H40.7288L32.4246 38.2157H28.203L19.8988 56.8237H23.2316ZM29.0918 43.6315L30.1749 40.993H30.3971L31.4803 43.6315L34.0076 49.2972H26.5644L29.0918 43.6315Z" stroke="white" stroke-width="0.4" mask="url(#path-1-outside-1_113_25)"/>
<path d="M50.7271 57.1015C56.3095 57.1015 59.4757 54.1575 59.4757 49.1028V38.2157H56.4762V48.9084C56.4762 52.6578 54.8098 54.2131 50.7271 54.2131C46.6445 54.2131 44.9781 52.6578 44.9781 48.9084V38.2157H42.0063V49.1028C42.0063 54.1575 45.1725 57.1015 50.7271 57.1015Z" stroke="white" stroke-width="0.4" mask="url(#path-1-outside-1_113_25)"/>
<path d="M65.1332 56.8237V51.2135H71.2433C75.3815 51.2135 78.2144 48.825 78.2144 44.7146C78.2144 40.5764 75.3815 38.2157 71.2433 38.2157H62.1337V56.8237H65.1332ZM70.9656 40.9097C73.7707 40.9097 75.2149 41.9651 75.2149 44.7146C75.2149 47.4642 73.7707 48.5195 70.9656 48.5195H65.1332V40.9097H70.9656Z" stroke="white" stroke-width="0.4" mask="url(#path-1-outside-1_113_25)"/>
<path d="M83.0068 56.8237V48.7973H93.9494V56.8237H96.9212V38.2157H93.9494V46.1033H83.0068V38.2157H80.0073V56.8237H83.0068Z" stroke="white" stroke-width="0.4" mask="url(#path-1-outside-1_113_25)"/>
<path d="M102.725 56.8237V38.2157H99.7252V56.8237H102.725Z" stroke="white" stroke-width="0.4" mask="url(#path-1-outside-1_113_25)"/>
<path d="M108.502 56.8237V45.9089L108.391 42.6872H108.613L110.946 45.9644L119.333 56.8237H122.555V38.2157H119.556V49.2139L119.694 52.5744H119.472L117.056 49.1028L108.724 38.2157H105.502V56.8237H108.502Z" stroke="white" stroke-width="0.4" mask="url(#path-1-outside-1_113_25)"/>
<path d="M137.008 0.948634C137.364 -0.316214 139.157 -0.31621 139.514 0.948638L140.973 6.12684C141.096 6.56291 141.437 6.90371 141.873 7.02664L147.051 8.48639C148.316 8.84296 148.316 10.6359 147.051 10.9925L141.873 12.4522C141.437 12.5751 141.096 12.9159 140.973 13.352L139.514 18.5302C139.157 19.7951 137.364 19.7951 137.008 18.5302L135.548 13.352C135.425 12.9159 135.084 12.5751 134.648 12.4522L129.47 10.9925C128.205 10.6359 128.205 8.84296 129.47 8.48639L134.648 7.02664C135.084 6.90371 135.425 6.56291 135.548 6.12684L137.008 0.948634Z" fill="#FF5C00"/>
</svg>
