<svg width="148" height="58" viewBox="0 0 148 58" fill="none" xmlns="http://www.w3.org/2000/svg">
<mask id="path-1-outside-1_113_30" maskUnits="userSpaceOnUse" x="-0.800049" y="15.9518" width="131" height="42" fill="black">
<rect fill="white" x="-0.800049" y="15.9518" width="131" height="42"/>
<path d="M14.6698 35.5599V32.8659H3.19946V16.9518H0.199951V35.5599H14.6698Z"/>
<path d="M18.5531 35.5599L20.6916 30.7273H30.5233L32.6619 35.5599H36.0502L27.746 16.9518H23.5245L15.2203 35.5599H18.5531ZM24.4132 22.3676L25.4964 19.7291H25.7186L26.8017 22.3676L29.3291 28.0333H21.8859L24.4132 22.3676Z"/>
<path d="M46.0486 35.8376C51.631 35.8376 54.7972 32.8936 54.7972 27.8389V16.9518H51.7976V27.6445C51.7976 31.3939 50.1313 32.9492 46.0486 32.9492C41.9659 32.9492 40.2995 31.3939 40.2995 27.6445V16.9518H37.3278V27.8389C37.3278 32.8936 40.4939 35.8376 46.0486 35.8376Z"/>
<path d="M60.4546 35.5599V28.3388H63.8708C66.2037 28.3388 67.0647 28.9498 67.8979 30.4218L70.8696 35.5599H74.3135L71.2029 30.1718C70.5363 29.0054 69.8698 28.1722 68.4256 27.7834V27.5889C71.925 27.3945 73.9524 25.5059 73.9524 22.4231C73.9524 18.9515 71.3418 16.9518 67.1202 16.9518H57.4551V35.5599H60.4546ZM60.4546 19.6458H67.0925C69.592 19.6458 70.8418 20.5623 70.8418 22.8397C70.8418 25.1727 69.592 26.0336 67.0925 26.0336H60.4546V19.6458Z"/>
<path d="M91.0017 35.5599V32.8659H79.1148V27.5334H90.5851V24.8672H79.1148V19.6458H91.0017V16.9518H76.1153V35.5599H91.0017Z"/>
<path d="M96.3375 35.5599V24.645L96.2264 21.4233H96.4486L98.7815 24.7005L107.169 35.5599H110.391V16.9518H107.391V27.95L107.53 31.3106H107.308L104.892 27.8389L96.5596 16.9518H93.3379V35.5599H96.3375Z"/>
<path d="M122.413 35.5599V19.6458H129.717V16.9518H112.109V19.6458H119.441V35.5599H122.413Z"/>
<path d="M8.83743 56.8237C14.6143 56.8237 18.2526 53.2688 18.2526 47.5197C18.2526 41.7706 14.6143 38.2157 8.83743 38.2157H0.366591V56.8237H8.83743ZM8.83743 40.9097C13.1423 40.9097 15.0864 42.7427 15.0864 47.5197C15.0864 52.2967 13.1423 54.1297 8.83743 54.1297H3.33833V40.9097H8.83743Z"/>
<path d="M22.4316 56.8237L24.5701 51.9912H34.4018L36.5404 56.8237H39.9287L31.6245 38.2157H27.403L19.0988 56.8237H22.4316ZM28.2917 43.6315L29.3749 40.993H29.5971L30.6802 43.6315L33.2076 49.2972H25.7644L28.2917 43.6315Z"/>
<path d="M49.9271 57.1015C55.5095 57.1015 58.6756 54.1575 58.6756 49.1028V38.2157H55.6761V48.9084C55.6761 52.6578 54.0097 54.2131 49.9271 54.2131C45.8444 54.2131 44.178 52.6578 44.178 48.9084V38.2157H41.2063V49.1028C41.2063 54.1575 44.3724 57.1015 49.9271 57.1015Z"/>
<path d="M64.3331 56.8237V51.2136H70.4433C74.5815 51.2136 77.4143 48.8251 77.4143 44.7146C77.4143 40.5764 74.5815 38.2157 70.4433 38.2157H61.3336V56.8237H64.3331ZM70.1655 40.9097C72.9706 40.9097 74.4148 41.9651 74.4148 44.7146C74.4148 47.4642 72.9706 48.5195 70.1655 48.5195H64.3331V40.9097H70.1655Z"/>
<path d="M82.2067 56.8237V48.7973H93.1494V56.8237H96.1211V38.2157H93.1494V46.1033H82.2067V38.2157H79.2072V56.8237H82.2067Z"/>
<path d="M101.925 56.8237V38.2157H98.9251V56.8237H101.925Z"/>
<path d="M107.702 56.8237V45.9089L107.591 42.6872H107.813L110.146 45.9644L118.533 56.8237H121.755V38.2157H118.755V49.2139L118.894 52.5744H118.672L116.256 49.1028L107.924 38.2157H104.702V56.8237H107.702Z"/>
</mask>
<path d="M14.6698 35.5599V32.8659H3.19946V16.9518H0.199951V35.5599H14.6698Z" fill="#141414"/>
<path d="M18.5531 35.5599L20.6916 30.7273H30.5233L32.6619 35.5599H36.0502L27.746 16.9518H23.5245L15.2203 35.5599H18.5531ZM24.4132 22.3676L25.4964 19.7291H25.7186L26.8017 22.3676L29.3291 28.0333H21.8859L24.4132 22.3676Z" fill="#141414"/>
<path d="M46.0486 35.8376C51.631 35.8376 54.7972 32.8936 54.7972 27.8389V16.9518H51.7976V27.6445C51.7976 31.3939 50.1313 32.9492 46.0486 32.9492C41.9659 32.9492 40.2995 31.3939 40.2995 27.6445V16.9518H37.3278V27.8389C37.3278 32.8936 40.4939 35.8376 46.0486 35.8376Z" fill="#141414"/>
<path d="M60.4546 35.5599V28.3388H63.8708C66.2037 28.3388 67.0647 28.9498 67.8979 30.4218L70.8696 35.5599H74.3135L71.2029 30.1718C70.5363 29.0054 69.8698 28.1722 68.4256 27.7834V27.5889C71.925 27.3945 73.9524 25.5059 73.9524 22.4231C73.9524 18.9515 71.3418 16.9518 67.1202 16.9518H57.4551V35.5599H60.4546ZM60.4546 19.6458H67.0925C69.592 19.6458 70.8418 20.5623 70.8418 22.8397C70.8418 25.1727 69.592 26.0336 67.0925 26.0336H60.4546V19.6458Z" fill="#141414"/>
<path d="M91.0017 35.5599V32.8659H79.1148V27.5334H90.5851V24.8672H79.1148V19.6458H91.0017V16.9518H76.1153V35.5599H91.0017Z" fill="#141414"/>
<path d="M96.3375 35.5599V24.645L96.2264 21.4233H96.4486L98.7815 24.7005L107.169 35.5599H110.391V16.9518H107.391V27.95L107.53 31.3106H107.308L104.892 27.8389L96.5596 16.9518H93.3379V35.5599H96.3375Z" fill="#141414"/>
<path d="M122.413 35.5599V19.6458H129.717V16.9518H112.109V19.6458H119.441V35.5599H122.413Z" fill="#141414"/>
<path d="M8.83743 56.8237C14.6143 56.8237 18.2526 53.2688 18.2526 47.5197C18.2526 41.7706 14.6143 38.2157 8.83743 38.2157H0.366591V56.8237H8.83743ZM8.83743 40.9097C13.1423 40.9097 15.0864 42.7427 15.0864 47.5197C15.0864 52.2967 13.1423 54.1297 8.83743 54.1297H3.33833V40.9097H8.83743Z" fill="#141414"/>
<path d="M22.4316 56.8237L24.5701 51.9912H34.4018L36.5404 56.8237H39.9287L31.6245 38.2157H27.403L19.0988 56.8237H22.4316ZM28.2917 43.6315L29.3749 40.993H29.5971L30.6802 43.6315L33.2076 49.2972H25.7644L28.2917 43.6315Z" fill="#141414"/>
<path d="M49.9271 57.1015C55.5095 57.1015 58.6756 54.1575 58.6756 49.1028V38.2157H55.6761V48.9084C55.6761 52.6578 54.0097 54.2131 49.9271 54.2131C45.8444 54.2131 44.178 52.6578 44.178 48.9084V38.2157H41.2063V49.1028C41.2063 54.1575 44.3724 57.1015 49.9271 57.1015Z" fill="#141414"/>
<path d="M64.3331 56.8237V51.2136H70.4433C74.5815 51.2136 77.4143 48.8251 77.4143 44.7146C77.4143 40.5764 74.5815 38.2157 70.4433 38.2157H61.3336V56.8237H64.3331ZM70.1655 40.9097C72.9706 40.9097 74.4148 41.9651 74.4148 44.7146C74.4148 47.4642 72.9706 48.5195 70.1655 48.5195H64.3331V40.9097H70.1655Z" fill="#141414"/>
<path d="M82.2067 56.8237V48.7973H93.1494V56.8237H96.1211V38.2157H93.1494V46.1033H82.2067V38.2157H79.2072V56.8237H82.2067Z" fill="#141414"/>
<path d="M101.925 56.8237V38.2157H98.9251V56.8237H101.925Z" fill="#141414"/>
<path d="M107.702 56.8237V45.9089L107.591 42.6872H107.813L110.146 45.9644L118.533 56.8237H121.755V38.2157H118.755V49.2139L118.894 52.5744H118.672L116.256 49.1028L107.924 38.2157H104.702V56.8237H107.702Z" fill="#141414"/>
<path d="M14.6698 35.5599V32.8659H3.19946V16.9518H0.199951V35.5599H14.6698Z" stroke="#141414" stroke-width="0.4" mask="url(#path-1-outside-1_113_30)"/>
<path d="M18.5531 35.5599L20.6916 30.7273H30.5233L32.6619 35.5599H36.0502L27.746 16.9518H23.5245L15.2203 35.5599H18.5531ZM24.4132 22.3676L25.4964 19.7291H25.7186L26.8017 22.3676L29.3291 28.0333H21.8859L24.4132 22.3676Z" stroke="#141414" stroke-width="0.4" mask="url(#path-1-outside-1_113_30)"/>
<path d="M46.0486 35.8376C51.631 35.8376 54.7972 32.8936 54.7972 27.8389V16.9518H51.7976V27.6445C51.7976 31.3939 50.1313 32.9492 46.0486 32.9492C41.9659 32.9492 40.2995 31.3939 40.2995 27.6445V16.9518H37.3278V27.8389C37.3278 32.8936 40.4939 35.8376 46.0486 35.8376Z" stroke="#141414" stroke-width="0.4" mask="url(#path-1-outside-1_113_30)"/>
<path d="M60.4546 35.5599V28.3388H63.8708C66.2037 28.3388 67.0647 28.9498 67.8979 30.4218L70.8696 35.5599H74.3135L71.2029 30.1718C70.5363 29.0054 69.8698 28.1722 68.4256 27.7834V27.5889C71.925 27.3945 73.9524 25.5059 73.9524 22.4231C73.9524 18.9515 71.3418 16.9518 67.1202 16.9518H57.4551V35.5599H60.4546ZM60.4546 19.6458H67.0925C69.592 19.6458 70.8418 20.5623 70.8418 22.8397C70.8418 25.1727 69.592 26.0336 67.0925 26.0336H60.4546V19.6458Z" stroke="#141414" stroke-width="0.4" mask="url(#path-1-outside-1_113_30)"/>
<path d="M91.0017 35.5599V32.8659H79.1148V27.5334H90.5851V24.8672H79.1148V19.6458H91.0017V16.9518H76.1153V35.5599H91.0017Z" stroke="#141414" stroke-width="0.4" mask="url(#path-1-outside-1_113_30)"/>
<path d="M96.3375 35.5599V24.645L96.2264 21.4233H96.4486L98.7815 24.7005L107.169 35.5599H110.391V16.9518H107.391V27.95L107.53 31.3106H107.308L104.892 27.8389L96.5596 16.9518H93.3379V35.5599H96.3375Z" stroke="#141414" stroke-width="0.4" mask="url(#path-1-outside-1_113_30)"/>
<path d="M122.413 35.5599V19.6458H129.717V16.9518H112.109V19.6458H119.441V35.5599H122.413Z" stroke="#141414" stroke-width="0.4" mask="url(#path-1-outside-1_113_30)"/>
<path d="M8.83743 56.8237C14.6143 56.8237 18.2526 53.2688 18.2526 47.5197C18.2526 41.7706 14.6143 38.2157 8.83743 38.2157H0.366591V56.8237H8.83743ZM8.83743 40.9097C13.1423 40.9097 15.0864 42.7427 15.0864 47.5197C15.0864 52.2967 13.1423 54.1297 8.83743 54.1297H3.33833V40.9097H8.83743Z" stroke="#141414" stroke-width="0.4" mask="url(#path-1-outside-1_113_30)"/>
<path d="M22.4316 56.8237L24.5701 51.9912H34.4018L36.5404 56.8237H39.9287L31.6245 38.2157H27.403L19.0988 56.8237H22.4316ZM28.2917 43.6315L29.3749 40.993H29.5971L30.6802 43.6315L33.2076 49.2972H25.7644L28.2917 43.6315Z" stroke="#141414" stroke-width="0.4" mask="url(#path-1-outside-1_113_30)"/>
<path d="M49.9271 57.1015C55.5095 57.1015 58.6756 54.1575 58.6756 49.1028V38.2157H55.6761V48.9084C55.6761 52.6578 54.0097 54.2131 49.9271 54.2131C45.8444 54.2131 44.178 52.6578 44.178 48.9084V38.2157H41.2063V49.1028C41.2063 54.1575 44.3724 57.1015 49.9271 57.1015Z" stroke="#141414" stroke-width="0.4" mask="url(#path-1-outside-1_113_30)"/>
<path d="M64.3331 56.8237V51.2136H70.4433C74.5815 51.2136 77.4143 48.8251 77.4143 44.7146C77.4143 40.5764 74.5815 38.2157 70.4433 38.2157H61.3336V56.8237H64.3331ZM70.1655 40.9097C72.9706 40.9097 74.4148 41.9651 74.4148 44.7146C74.4148 47.4642 72.9706 48.5195 70.1655 48.5195H64.3331V40.9097H70.1655Z" stroke="#141414" stroke-width="0.4" mask="url(#path-1-outside-1_113_30)"/>
<path d="M82.2067 56.8237V48.7973H93.1494V56.8237H96.1211V38.2157H93.1494V46.1033H82.2067V38.2157H79.2072V56.8237H82.2067Z" stroke="#141414" stroke-width="0.4" mask="url(#path-1-outside-1_113_30)"/>
<path d="M101.925 56.8237V38.2157H98.9251V56.8237H101.925Z" stroke="#141414" stroke-width="0.4" mask="url(#path-1-outside-1_113_30)"/>
<path d="M107.702 56.8237V45.9089L107.591 42.6872H107.813L110.146 45.9644L118.533 56.8237H121.755V38.2157H118.755V49.2139L118.894 52.5744H118.672L116.256 49.1028L107.924 38.2157H104.702V56.8237H107.702Z" stroke="#141414" stroke-width="0.4" mask="url(#path-1-outside-1_113_30)"/>
<path d="M136.208 0.948634C136.564 -0.316214 138.357 -0.31621 138.714 0.948638L140.173 6.12684C140.296 6.56291 140.637 6.90371 141.073 7.02664L146.251 8.48639C147.516 8.84296 147.516 10.6359 146.251 10.9925L141.073 12.4522C140.637 12.5751 140.296 12.9159 140.173 13.352L138.714 18.5302C138.357 19.7951 136.564 19.7951 136.208 18.5302L134.748 13.352C134.625 12.9159 134.284 12.5751 133.848 12.4522L128.67 10.9925C127.405 10.6359 127.405 8.84296 128.67 8.48639L133.848 7.02664C134.284 6.90371 134.625 6.56291 134.748 6.12684L136.208 0.948634Z" fill="#FF5C00"/>
</svg>
