<svg width="43" height="42" viewBox="0 0 43 42" fill="none" xmlns="http://www.w3.org/2000/svg">
<path d="M18.5929 2.02011C19.3522 -0.673374 23.1703 -0.673366 23.9296 2.02011L27.0381 13.047C27.2999 13.9756 28.0256 14.7014 28.9542 14.9631L39.9811 18.0717C42.6746 18.831 42.6746 22.649 39.9811 23.4083L28.9542 26.5169C28.0256 26.7786 27.2999 27.5044 27.0381 28.433L23.9296 39.4599C23.1703 42.1534 19.3522 42.1534 18.5929 39.4599L15.4844 28.433C15.2226 27.5044 14.4969 26.7786 13.5683 26.5169L2.54135 23.4083C-0.152134 22.649 -0.152126 18.831 2.54135 18.0717L13.5683 14.9631C14.4969 14.7014 15.2226 13.9756 15.4844 13.047L18.5929 2.02011Z" fill="#FF5C00"/>
</svg>
